<svg preserveAspectRatio="none" width="100%" height="100%" overflow="visible" style="display: block;" viewBox="0 0 26 26" fill="none" xmlns="http://www.w3.org/2000/svg">
<g id="Group">
<path id="Vector" d="M25.1087 8.29513C24.5764 6.927 23.8248 5.67102 22.8879 4.57334C20.9489 2.29995 18.2414 0.711795 15.1667 0.195091C14.4608 0.076186 13.7397 0 13 0C12.2602 0 11.5391 0.076186 10.8333 0.195091C7.75851 0.711795 5.0519 2.29951 3.11204 4.57247C2.17593 5.67063 1.42435 6.92618 0.892084 8.29426C0.323246 9.75513 0 11.3382 0 13C0 14.5273 0.276719 15.9864 0.760826 17.3477C1.25337 18.7324 1.96516 20.0112 2.86824 21.1348C4.82083 23.5638 7.62725 25.2662 10.8333 25.8049C11.5391 25.9238 12.2602 26 13 26C13.7397 26 14.4608 25.9238 15.1667 25.8049C18.3726 25.2662 21.1792 23.5638 23.1317 21.1351C24.0348 20.0117 24.7466 18.7328 25.2391 17.3482C25.7232 15.9868 26 14.5273 26 13C26 11.3386 25.6766 9.75557 25.1087 8.29513ZM23.5837 9.17497L21.3103 10.4872C20.8796 9.06532 20.0932 7.79835 19.0548 6.78605L21.3492 5.4615C22.3183 6.53388 23.0818 7.79029 23.5837 9.17497ZM19.9511 13C19.9511 16.8328 16.8331 19.9511 13 19.9511C9.16681 19.9511 6.04884 16.8328 6.04884 13C6.04884 9.16736 9.16687 6.0489 13 6.0489C16.8331 6.0489 19.9511 9.16736 19.9511 13ZM13 1.73334C13.7413 1.73334 14.465 1.80996 15.1667 1.94704V4.60033C14.4726 4.42091 13.749 4.31556 13 4.31556C12.2509 4.31556 11.5273 4.42097 10.8333 4.60033V1.94704C11.5349 1.80996 12.2585 1.73334 13 1.73334ZM4.65148 5.46112L6.94599 6.78605C5.90757 7.79791 5.12046 9.06488 4.68963 10.4867L2.41629 9.17454C2.91901 7.78986 3.68245 6.53344 4.65148 5.46112ZM2.28515 16.4676L4.59228 15.1358C4.9596 16.581 5.68663 17.8806 6.67765 18.9355L4.39251 20.2545C3.46244 19.1522 2.74047 17.8704 2.28515 16.4676ZM13 24.2667C12.2585 24.2667 11.5349 24.19 10.8333 24.053V21.3997C11.5273 21.5791 12.2509 21.6844 13 21.6844C13.749 21.6844 14.4726 21.5791 15.1667 21.3997V24.053C14.465 24.19 13.7413 24.2667 13 24.2667ZM21.6065 20.2545L19.3222 18.9355C20.3133 17.881 21.0403 16.581 21.4076 15.1358L23.7147 16.468C23.2594 17.8704 22.5375 19.1522 21.6065 20.2545Z" fill="white"/>
<path id="Vector_2" d="M13.7346 12.0555C12.6292 11.6395 12.1747 11.3666 12.1747 10.9374C12.1747 10.5735 12.4473 10.2096 13.2928 10.2096C13.7803 10.2096 14.1764 10.2905 14.4913 10.3886C14.6698 10.4441 14.8636 10.4234 15.0279 10.3319C15.1912 10.2409 15.3097 10.0865 15.3562 9.90489L15.3681 9.8601C15.4738 9.44581 15.225 9.02342 14.8103 8.91638C14.492 8.83388 14.1137 8.7738 13.6568 8.75345V8.26536C13.6568 7.93363 13.4109 7.64342 13.0806 7.61251C12.7019 7.57708 12.3829 7.87464 12.3829 8.24654V8.84443C10.9916 9.11734 10.1859 10.0145 10.1859 11.1583C10.1859 12.4194 11.1346 13.0694 12.526 13.5374C13.4875 13.8624 13.9038 14.1743 13.9038 14.6681C13.9038 15.1882 13.3969 15.4743 12.6555 15.4743C12.1248 15.4743 11.6246 15.3664 11.1905 15.2124C11.0094 15.1476 10.8087 15.1632 10.6386 15.2538C10.4685 15.3444 10.344 15.5017 10.2966 15.6889L10.2908 15.7109C10.1774 16.1539 10.4329 16.6071 10.8705 16.7392C11.2996 16.8682 11.8041 16.9592 12.3178 16.9821V17.5627C12.3178 17.9145 12.6029 18.1996 12.9547 18.1996C13.3064 18.1996 13.5916 17.9145 13.5916 17.5627V16.8911C15.0862 16.6313 15.9055 15.6432 15.9055 14.4862C15.9055 13.3166 15.2818 12.6014 13.7346 12.0555Z" fill="#00BBFF"/>
</g>
</svg>
